<mxfile host="app.diagrams.net" modified="2022-08-01T09:04:41.791Z" agent="5.0 (Macintosh; Intel Mac OS X 10_15_7) AppleWebKit/537.36 (KHTML, like Gecko) Chrome/103.0.0.0 Safari/537.36" etag="6moz09ro93iSeUMYxk1B" version="20.2.2" type="github">
  <diagram name="Page-1" id="90a13364-a465-7bf4-72fc-28e22215d7a0">
    <mxGraphModel dx="3389" dy="1937" grid="1" gridSize="10" guides="1" tooltips="1" connect="1" arrows="1" fold="1" page="1" pageScale="1.5" pageWidth="1169" pageHeight="826" background="none" math="0" shadow="0">
      <root>
        <mxCell id="0" style=";html=1;" />
        <mxCell id="1" style=";html=1;" parent="0" />
        <mxCell id="O-fLTjXK0J9nhpWW2-7K-1" value="View" style="rounded=0;whiteSpace=wrap;html=1;" vertex="1" parent="1">
          <mxGeometry x="840" y="650" width="120" height="60" as="geometry" />
        </mxCell>
        <mxCell id="O-fLTjXK0J9nhpWW2-7K-3" value="Presenter" style="rounded=0;whiteSpace=wrap;html=1;" vertex="1" parent="1">
          <mxGeometry x="660" y="770" width="120" height="60" as="geometry" />
        </mxCell>
        <mxCell id="O-fLTjXK0J9nhpWW2-7K-4" value="Model" style="rounded=0;whiteSpace=wrap;html=1;" vertex="1" parent="1">
          <mxGeometry x="860" y="890" width="120" height="60" as="geometry" />
        </mxCell>
        <mxCell id="O-fLTjXK0J9nhpWW2-7K-5" value="" style="endArrow=classic;html=1;rounded=0;" edge="1" parent="1">
          <mxGeometry width="50" height="50" relative="1" as="geometry">
            <mxPoint x="880" y="580" as="sourcePoint" />
            <mxPoint x="880" y="640" as="targetPoint" />
            <Array as="points" />
          </mxGeometry>
        </mxCell>
        <mxCell id="O-fLTjXK0J9nhpWW2-7K-6" value="User" style="shape=umlActor;verticalLabelPosition=bottom;verticalAlign=top;html=1;outlineConnect=0;" vertex="1" parent="1">
          <mxGeometry x="870" y="490" width="30" height="60" as="geometry" />
        </mxCell>
        <mxCell id="O-fLTjXK0J9nhpWW2-7K-8" value="User Action/Click/Intent" style="text;html=1;strokeColor=none;fillColor=none;align=center;verticalAlign=middle;whiteSpace=wrap;rounded=0;" vertex="1" parent="1">
          <mxGeometry x="890" y="589.5" width="110" height="30" as="geometry" />
        </mxCell>
        <mxCell id="O-fLTjXK0J9nhpWW2-7K-11" value="" style="curved=1;endArrow=classic;html=1;rounded=0;entryX=0.408;entryY=-0.017;entryDx=0;entryDy=0;entryPerimeter=0;exitX=0;exitY=0.5;exitDx=0;exitDy=0;" edge="1" parent="1" source="O-fLTjXK0J9nhpWW2-7K-1" target="O-fLTjXK0J9nhpWW2-7K-3">
          <mxGeometry width="50" height="50" relative="1" as="geometry">
            <mxPoint x="830" y="680" as="sourcePoint" />
            <mxPoint x="740" y="710" as="targetPoint" />
            <Array as="points">
              <mxPoint x="720" y="690" />
              <mxPoint x="870" y="710" />
            </Array>
          </mxGeometry>
        </mxCell>
        <mxCell id="O-fLTjXK0J9nhpWW2-7K-12" value="Intents passed to Presenter for Processing" style="text;html=1;strokeColor=none;fillColor=none;align=center;verticalAlign=middle;whiteSpace=wrap;rounded=0;" vertex="1" parent="1">
          <mxGeometry x="680" y="660" width="70" height="40" as="geometry" />
        </mxCell>
        <mxCell id="O-fLTjXK0J9nhpWW2-7K-15" value="" style="curved=1;endArrow=classic;html=1;rounded=0;exitX=1;exitY=0.5;exitDx=0;exitDy=0;" edge="1" parent="1" source="O-fLTjXK0J9nhpWW2-7K-3">
          <mxGeometry width="50" height="50" relative="1" as="geometry">
            <mxPoint x="790" y="810" as="sourcePoint" />
            <mxPoint x="970" y="680" as="targetPoint" />
            <Array as="points">
              <mxPoint x="820" y="760" />
              <mxPoint x="1100" y="750" />
            </Array>
          </mxGeometry>
        </mxCell>
        <mxCell id="O-fLTjXK0J9nhpWW2-7K-16" value="Changes to View are updated by Presenter" style="text;html=1;strokeColor=none;fillColor=none;align=center;verticalAlign=middle;whiteSpace=wrap;rounded=0;" vertex="1" parent="1">
          <mxGeometry x="1040" y="730" width="60" height="30" as="geometry" />
        </mxCell>
        <mxCell id="O-fLTjXK0J9nhpWW2-7K-18" value="" style="curved=1;endArrow=classic;html=1;rounded=0;entryX=0;entryY=0.5;entryDx=0;entryDy=0;exitX=0.25;exitY=1;exitDx=0;exitDy=0;" edge="1" parent="1" source="O-fLTjXK0J9nhpWW2-7K-3" target="O-fLTjXK0J9nhpWW2-7K-4">
          <mxGeometry width="50" height="50" relative="1" as="geometry">
            <mxPoint x="690" y="840" as="sourcePoint" />
            <mxPoint x="760" y="880" as="targetPoint" />
            <Array as="points">
              <mxPoint x="530" y="990" />
            </Array>
          </mxGeometry>
        </mxCell>
        <mxCell id="O-fLTjXK0J9nhpWW2-7K-19" value="Presenter Manipulates the Model" style="text;html=1;strokeColor=none;fillColor=none;align=center;verticalAlign=middle;whiteSpace=wrap;rounded=0;" vertex="1" parent="1">
          <mxGeometry x="560" y="890" width="60" height="30" as="geometry" />
        </mxCell>
        <mxCell id="O-fLTjXK0J9nhpWW2-7K-20" value="" style="curved=1;endArrow=classic;html=1;rounded=0;entryX=0.7;entryY=1.025;entryDx=0;entryDy=0;entryPerimeter=0;exitX=0;exitY=0.25;exitDx=0;exitDy=0;" edge="1" parent="1" source="O-fLTjXK0J9nhpWW2-7K-4" target="O-fLTjXK0J9nhpWW2-7K-3">
          <mxGeometry width="50" height="50" relative="1" as="geometry">
            <mxPoint x="850" y="910" as="sourcePoint" />
            <mxPoint x="750" y="840" as="targetPoint" />
            <Array as="points">
              <mxPoint x="840" y="910" />
              <mxPoint x="730" y="900" />
            </Array>
          </mxGeometry>
        </mxCell>
        <mxCell id="O-fLTjXK0J9nhpWW2-7K-21" value="Model Changes Fires events to Presenter" style="text;html=1;strokeColor=none;fillColor=none;align=center;verticalAlign=middle;whiteSpace=wrap;rounded=0;" vertex="1" parent="1">
          <mxGeometry x="780" y="850" width="60" height="30" as="geometry" />
        </mxCell>
        <mxCell id="O-fLTjXK0J9nhpWW2-7K-22" value="Application Services, Rest API, State Management API" style="whiteSpace=wrap;html=1;aspect=fixed;" vertex="1" parent="1">
          <mxGeometry x="330" y="750" width="80" height="80" as="geometry" />
        </mxCell>
        <mxCell id="O-fLTjXK0J9nhpWW2-7K-25" value="" style="endArrow=classic;html=1;rounded=0;exitX=1;exitY=0.5;exitDx=0;exitDy=0;entryX=0;entryY=0.5;entryDx=0;entryDy=0;" edge="1" parent="1" source="O-fLTjXK0J9nhpWW2-7K-22" target="O-fLTjXK0J9nhpWW2-7K-3">
          <mxGeometry width="50" height="50" relative="1" as="geometry">
            <mxPoint x="870" y="660" as="sourcePoint" />
            <mxPoint x="920" y="610" as="targetPoint" />
            <Array as="points" />
          </mxGeometry>
        </mxCell>
        <mxCell id="O-fLTjXK0J9nhpWW2-7K-26" value="Presenter consumes any other services that helps in processing the Intents/Preparing ViewModel" style="text;html=1;strokeColor=none;fillColor=none;align=center;verticalAlign=middle;whiteSpace=wrap;rounded=0;" vertex="1" parent="1">
          <mxGeometry x="470" y="785" width="60" height="30" as="geometry" />
        </mxCell>
        <mxCell id="O-fLTjXK0J9nhpWW2-7K-27" value="1. HTML should not contain any logic, all logic has to be evaluated at the Presenter and ViewModel needs to be updated accordingly&lt;br&gt;&lt;br&gt;&lt;br&gt;&lt;div style=&quot;&quot;&gt;&lt;span style=&quot;background-color: initial;&quot;&gt;2. Component class of Angular, should also not contain any logic other than, consuming the VieModel from the Presenter and passing the user intents to the Presenter&lt;/span&gt;&lt;/div&gt;&lt;div style=&quot;&quot;&gt;&lt;span style=&quot;background-color: initial;&quot;&gt;&lt;br&gt;&lt;/span&gt;&lt;/div&gt;&lt;div style=&quot;&quot;&gt;&lt;span style=&quot;background-color: initial;&quot;&gt;3. Spec file should only test the output of the Presenter i.e actual ViewModel object should be asserted against the expected&lt;/span&gt;&lt;/div&gt;&lt;div style=&quot;&quot;&gt;&lt;span style=&quot;background-color: initial;&quot;&gt;&lt;br&gt;&lt;/span&gt;&lt;/div&gt;&lt;div style=&quot;&quot;&gt;&lt;span style=&quot;background-color: initial;&quot;&gt;4. Presenter should be the one consuming the Rest API or State Management APIs. Only Presenter can modify the State data.&lt;/span&gt;&lt;/div&gt;" style="text;html=1;strokeColor=none;fillColor=none;align=left;verticalAlign=middle;whiteSpace=wrap;rounded=0;" vertex="1" parent="1">
          <mxGeometry x="1120" y="380" width="270" height="30" as="geometry" />
        </mxCell>
      </root>
    </mxGraphModel>
  </diagram>
</mxfile>
